<?xml version="1.0" encoding="utf-8"?>
<!-- Generator: Adobe Illustrator 27.1.1, SVG Export Plug-In . SVG Version: 6.00 Build 0)  -->
<svg version="1.1" id="Layer_1" xmlns="http://www.w3.org/2000/svg" xmlns:xlink="http://www.w3.org/1999/xlink" x="0px" y="0px"
	 viewBox="0 0 144 41.4" style="enable-background:new 0 0 144 41.4;" xml:space="preserve">
<style type="text/css">
	.st0{fill:#2E3130;}
	.st1{opacity:0.9;fill:#F79320;}
	.st2{fill:#58595B;}
	.st3{opacity:0.9;fill:#BDD23B;}
	.st4{opacity:0.9;fill:#076F39;}
	.st5{opacity:0.9;fill:#FAB816;}
	.st6{opacity:0.9;fill:#FED401;}
	.st7{opacity:0.9;fill:#BED731;}
	.st8{opacity:0.9;fill:#8EC641;}
	.st9{opacity:0.7;fill:#04A54F;}
</style>
<g>
	<path class="st0" d="M34.6,26.2h-4.1V4.3h7.9c2.1,0,3.9,0.7,5.4,2c1.5,1.3,2.2,3.2,2.2,5.5c0,3-1.2,5.2-3.5,6.6l4.4,7.6l-0.1,0.2
		h-4.2l-3.8-6.5c-0.5,0-0.9,0.1-1.2,0.1h-3.1V26.2z M37.6,8h-3v8h2.5c1.4,0,2.6-0.4,3.5-1.1c0.9-0.7,1.3-1.8,1.3-3
		c0-1.3-0.4-2.2-1.2-2.9C39.9,8.3,38.8,8,37.6,8z"/>
	<path class="st0" d="M61,26.2H57V8.3h-7.1v-4h18.2v4H61V26.2z"/>
	<path class="st0" d="M87,22.3v3.9H74V4.3H87v3.9h-9V14h7.5v3.7H78v4.5H87z"/>
	<path class="st0" d="M125.2,26.2h-4.1V4h0.3l14.9,13.9V4.3h4.1v22.2h-0.3l-14.9-13.9V26.2z"/>
	<polygon class="st0" points="14.3,11.5 20.8,26.2 24.9,26.2 25.1,26 14.5,4 14.2,4 3.6,26 3.7,26.2 7.8,26.2 	"/>
	<polygon class="st1" points="16.3,26.2 16.3,26.1 14.4,22.1 14.3,22.1 12.4,26.1 12.4,26.2 	"/>
	<g>
		<g>
			<path class="st2" d="M32.5,35.4v-5.7h-2v-0.4H35v0.4h-2v5.7H32.5z"/>
			<path class="st2" d="M45.9,33.3h-3.8c0,1.2,0.9,1.9,1.8,1.9c0.6,0,1.2-0.3,1.5-0.8l0.3,0.2c-0.4,0.7-1,1-1.8,1
				c-1.3,0-2.2-1-2.2-2.3c0-1.3,0.9-2.3,2.2-2.3c1.3,0,2.1,1.1,2.1,2.1C45.9,33.1,45.9,33.2,45.9,33.3z M45.5,33
				c0-0.8-0.6-1.6-1.6-1.6c-0.8,0-1.6,0.6-1.7,1.6H45.5z"/>
			<path class="st2" d="M53.7,33.3c0-1.4,1-2.3,2.2-2.3c0.9,0,1.7,0.5,2,1.3l-0.4,0.2c-0.3-0.7-0.9-1.1-1.6-1.1
				c-1,0-1.8,0.8-1.8,1.9c0,1.1,0.8,1.9,1.7,1.9c0.8,0,1.4-0.5,1.7-1.2l0.4,0.1c-0.3,0.9-1.1,1.5-2.1,1.5
				C54.6,35.6,53.7,34.6,53.7,33.3z"/>
			<path class="st2" d="M69.9,32.8v2.6h-0.4v-2.5c0-0.9-0.5-1.5-1.4-1.5c-0.9,0-1.6,0.6-1.6,1.7v2.3H66v-6.2h0.4v2.7
				c0.3-0.7,1-1,1.7-1C69.3,31,69.9,31.7,69.9,32.8z"/>
			<path class="st2" d="M82.3,32.8v2.6h-0.4v-2.5c0-0.9-0.5-1.5-1.4-1.5c-0.9,0-1.6,0.6-1.6,1.7v2.3h-0.4v-4.3h0.4v0.9
				c0.3-0.7,1-1,1.7-1C81.7,31,82.3,31.7,82.3,32.8z"/>
			<path class="st2" d="M90.4,33.2c0-1.4,1-2.3,2.3-2.3s2.3,0.9,2.3,2.3c0,1.4-1,2.3-2.3,2.3C91.4,35.6,90.4,34.6,90.4,33.2z
				 M94.5,33.2c0-1.1-0.8-1.9-1.8-1.9s-1.8,0.8-1.8,1.9c0,1.1,0.8,1.9,1.8,1.9C93.7,35.1,94.5,34.4,94.5,33.2z"/>
			<path class="st2" d="M103.1,35.4v-6.2h0.4v6.2H103.1z"/>
			<path class="st2" d="M111.8,33.2c0-1.4,1-2.3,2.3-2.3s2.3,0.9,2.3,2.3c0,1.4-1,2.3-2.3,2.3C112.8,35.6,111.8,34.6,111.8,33.2z
				 M115.9,33.2c0-1.1-0.8-1.9-1.8-1.9s-1.8,0.8-1.8,1.9c0,1.1,0.8,1.9,1.8,1.9C115,35.1,115.9,34.4,115.9,33.2z"/>
			<path class="st2" d="M128.5,31v0.2l-1,0.1c0.6,0.4,0.9,1,0.9,1.7c0,0.8-0.5,1.5-1.2,1.8c0.8,0.2,1.1,0.6,1.1,1.2
				c0,0.9-0.8,1.4-2.1,1.4c-1.1,0-2-0.6-2.2-1.7l0.4-0.1c0.1,0.9,0.9,1.5,1.8,1.5c1,0,1.6-0.4,1.6-1.1c0-0.9-1-0.9-1.7-1
				c-1.3,0-2.2-0.8-2.2-2c0-1.2,0.9-2,2.2-2H128.5z M126.3,31.3c-0.8,0-1.7,0.5-1.7,1.6c0,1.1,0.7,1.7,1.7,1.7c1,0,1.7-0.8,1.7-1.7
				C128,31.9,127.1,31.3,126.3,31.3z"/>
			<path class="st2" d="M139.9,31.1h0.5l-1.9,4.4c-0.4,1-0.8,1.9-1.9,1.9c-0.2,0-0.3,0-0.5-0.1l0.1-0.4c0.2,0.1,0.3,0.1,0.4,0.1
				c0.8,0,1.1-0.8,1.4-1.5l-1.9-4.4h0.5l1.6,4L139.9,31.1z"/>
		</g>
	</g>
	<g>
		<polygon class="st3" points="107.9,10.7 107.9,19.8 107.9,26.2 114.3,19.8 114.4,19.8 114.4,19.8 114.4,10.7 108,4.3 107.9,4.3 
			107.9,4.3 		"/>
		<polygon class="st1" points="98.9,10.7 107.9,10.7 114.4,10.7 108,4.3 107.9,4.3 107.9,4.3 98.9,4.3 92.5,10.6 92.4,10.7 
			92.4,10.7 		"/>
		<polygon class="st4" points="103.4,8.8 109.8,15.2 114.4,19.8 114.4,10.7 114.4,10.7 114.4,10.7 107.9,4.3 98.9,4.3 98.9,4.3 
			98.9,4.3 		"/>
		<polygon class="st5" points="97,15.2 103.4,8.8 107.9,4.3 98.9,4.3 98.9,4.3 98.9,4.3 92.4,10.7 92.4,19.7 92.4,19.8 92.4,19.8 		
			"/>
		<polygon class="st6" points="98.9,19.8 98.9,10.7 98.9,4.3 92.5,10.6 92.4,10.7 92.4,10.7 92.4,19.8 98.8,26.1 98.9,26.2 
			98.9,26.2 		"/>
		<polygon class="st7" points="103.4,21.6 97,15.2 92.4,10.7 92.4,19.7 92.4,19.7 92.4,19.7 98.9,26.2 107.9,26.2 107.9,26.2 
			107.9,26.2 		"/>
		<polygon class="st8" points="107.9,19.8 98.9,19.8 92.4,19.8 98.8,26.1 98.9,26.2 98.9,26.2 107.9,26.2 114.3,19.8 114.4,19.8 
			114.4,19.8 		"/>
		<polygon class="st9" points="109.8,15.2 103.4,21.6 98.9,26.2 107.9,26.2 107.9,26.2 107.9,26.2 114.4,19.7 114.4,10.7 
			114.4,10.7 114.4,10.7 		"/>
	</g>
</g>
</svg>
